# xmcd
#
# Track frame offsets:
#	150
#	15570
#	48027
#	68915
#	86342
#	106660
#	124410
#	140575
#	157372
#	172427
#	191462
#	206592
#	218175
#	228690
#
# Disc length: 3420
#
# Revision: 1
# Processed by: cddbd v1.5.1PL0 Copyright (c) Steve Scherf et al.
# Submitted via: audiograbber 1.82.02
# Normalized: r0:DSETVAR1
#
DISCID=cd0d5a0e
DTITLE=Various Artist - Fim De Tarde - Sexta-Feira
DYEAR=1900
DGENRE=MPB
TTITLE0=Amelinha - A Vida Do Viajante
TTITLE1=Caetano Veloso - Odara
TTITLE2=Elis Regina - Saudosa Maloca
TTITLE3=Alceu Valença - Tropicana (Morena Tropicana)
TTITLE4=Beijo - Estrela Primeira (Amor Eu Fico)
TTITLE5=Lulu Santos - Apenas Mais Uma De Amor
TTITLE6=Milton Nascimento - Certas Cançoes
TTITLE7=Wando - Fogo E Paixao
TTITLE8=Roupa Nova - Clarear
TTITLE9=Jorge Ben - Por Causa De Voce and  Menina and Chove Chuva and Mas Que Nada
TTITLE10=Nara Leao - Amor Nas Estrelas
TTITLE11=Tim Maia - Nao Quero Dinheiro (So Quero Amar)
TTITLE12=MPB 4 and Quarteto Em Cy - Nada Sera Como Antes
TTITLE13=Chico Buarque - Vai Passar
EXTD=
EXTT0=
EXTT1=
EXTT2=
EXTT3=
EXTT4=
EXTT5=
EXTT6=
EXTT7=
EXTT8=
EXTT9=
EXTT10=
EXTT11=
EXTT12=
EXTT13=
PLAYORDER=
